<svg width="68" height="68" viewBox="0 0 68 68" fill="none" xmlns="http://www.w3.org/2000/svg">
    <g filter="url(#filter0_i_314_1361)">
        <path d="M26.7652 23.4404C26.7859 23.3176 26.7967 23.1913 26.7967 23.0624C26.7967 21.8566 25.8531 20.8792 24.6891 20.8792C23.8238 20.8792 23.0802 21.4194 22.7557 22.192C22.4927 21.9568 22.1515 21.8148 21.7786 21.8148C20.9472 21.8148 20.2732 22.5208 20.2732 23.3917C20.2732 23.4401 20.2753 23.4881 20.2794 23.5355C19.8795 23.7384 19.6041 24.1642 19.6041 24.6566C19.6041 25.3456 20.1433 25.9042 20.8085 25.9042H26.4956C27.1608 25.9042 27.7 25.3456 27.7 24.6566C27.7 24.0636 27.3006 23.5672 26.7652 23.4404Z" fill="url(#paint0_linear_314_1361)"/>
    </g>
    <g filter="url(#filter1_i_314_1361)">
        <path d="M46.3372 37.0028C46.4314 36.4708 46.4804 35.9236 46.4804 35.365C46.4804 30.1399 42.1854 25.9042 36.8873 25.9042C32.9485 25.9042 29.5642 28.2451 28.0868 31.5932C26.8899 30.5741 25.3368 29.9588 23.6395 29.9588C19.8551 29.9588 16.7873 33.018 16.7873 36.7917C16.7873 37.0018 16.7968 37.2097 16.8154 37.415C14.9952 38.2943 13.7418 40.1393 13.7418 42.273C13.7418 45.2587 16.1961 47.6792 19.2236 47.6792H45.11C48.1375 47.6792 50.5918 45.2587 50.5918 42.273C50.5918 39.7033 48.7739 37.5524 46.3372 37.0028Z" fill="url(#paint1_linear_314_1361)"/>
    </g>
    <g filter="url(#filter2_i_314_1361)">
        <path d="M52.0382 23.1202C52.0382 23.4997 52.0054 23.8715 51.9427 24.233C53.5671 24.6064 54.7791 26.068 54.7791 27.814C54.7791 29.8428 53.1429 31.4875 51.1245 31.4875H45.6401C44.1386 28.1959 40.7842 25.9042 36.887 25.9042C34.3253 25.9042 31.9981 26.8944 30.2775 28.5079C30.2348 28.2832 30.2124 28.0513 30.2124 27.814C30.2124 26.3642 31.048 25.1106 32.2615 24.5131C32.249 24.3736 32.2427 24.2324 32.2427 24.0896C32.2427 21.5254 34.288 19.4467 36.8109 19.4467C37.9424 19.4467 38.9778 19.8648 39.7757 20.5573C40.7607 18.2823 43.0169 16.6917 45.6427 16.6917C49.1748 16.6917 52.0382 19.5698 52.0382 23.1202Z" fill="url(#paint2_linear_314_1361)"/>
    </g>
    <defs>
        <filter id="filter0_i_314_1361" x="19.604" y="20.8792" width="8.09595" height="15.025" filterUnits="userSpaceOnUse" color-interpolation-filters="sRGB">
            <feFlood flood-opacity="0" result="BackgroundImageFix"/>
            <feBlend mode="normal" in="SourceGraphic" in2="BackgroundImageFix" result="shape"/>
            <feColorMatrix in="SourceAlpha" type="matrix" values="0 0 0 0 0 0 0 0 0 0 0 0 0 0 0 0 0 0 127 0" result="hardAlpha"/>
            <feOffset dy="11"/>
            <feGaussianBlur stdDeviation="5"/>
            <feComposite in2="hardAlpha" operator="arithmetic" k2="-1" k3="1"/>
            <feColorMatrix type="matrix" values="0 0 0 0 1 0 0 0 0 1 0 0 0 0 1 0 0 0 1 0"/>
            <feBlend mode="normal" in2="shape" result="effect1_innerShadow_314_1361"/>
        </filter>
        <filter id="filter1_i_314_1361" x="13.7417" y="25.9042" width="36.8501" height="31.775" filterUnits="userSpaceOnUse" color-interpolation-filters="sRGB">
            <feFlood flood-opacity="0" result="BackgroundImageFix"/>
            <feBlend mode="normal" in="SourceGraphic" in2="BackgroundImageFix" result="shape"/>
            <feColorMatrix in="SourceAlpha" type="matrix" values="0 0 0 0 0 0 0 0 0 0 0 0 0 0 0 0 0 0 127 0" result="hardAlpha"/>
            <feOffset dy="11"/>
            <feGaussianBlur stdDeviation="5"/>
            <feComposite in2="hardAlpha" operator="arithmetic" k2="-1" k3="1"/>
            <feColorMatrix type="matrix" values="0 0 0 0 1 0 0 0 0 1 0 0 0 0 1 0 0 0 1 0"/>
            <feBlend mode="normal" in2="shape" result="effect1_innerShadow_314_1361"/>
        </filter>
        <filter id="filter2_i_314_1361" x="30.2124" y="16.6917" width="24.5669" height="24.7958" filterUnits="userSpaceOnUse" color-interpolation-filters="sRGB">
            <feFlood flood-opacity="0" result="BackgroundImageFix"/>
            <feBlend mode="normal" in="SourceGraphic" in2="BackgroundImageFix" result="shape"/>
            <feColorMatrix in="SourceAlpha" type="matrix" values="0 0 0 0 0 0 0 0 0 0 0 0 0 0 0 0 0 0 127 0" result="hardAlpha"/>
            <feOffset dy="11"/>
            <feGaussianBlur stdDeviation="5"/>
            <feComposite in2="hardAlpha" operator="arithmetic" k2="-1" k3="1"/>
            <feColorMatrix type="matrix" values="0 0 0 0 1 0 0 0 0 1 0 0 0 0 1 0 0 0 1 0"/>
            <feBlend mode="normal" in2="shape" result="effect1_innerShadow_314_1361"/>
        </filter>
        <linearGradient id="paint0_linear_314_1361" x1="20.119" y1="25.4555" x2="28.544" y2="19.4298" gradientUnits="userSpaceOnUse">
            <stop stop-color="white" stop-opacity="0.65"/>
            <stop offset="1" stop-color="white" stop-opacity="0.58"/>
        </linearGradient>
        <linearGradient id="paint1_linear_314_1361" x1="16.0856" y1="45.735" x2="53.138" y2="17.8987" gradientUnits="userSpaceOnUse">
            <stop stop-color="white" stop-opacity="0.65"/>
            <stop offset="1" stop-color="white" stop-opacity="0.58"/>
        </linearGradient>
        <linearGradient id="paint2_linear_314_1361" x1="53.2165" y1="30.1664" x2="28.1772" y2="11.7102" gradientUnits="userSpaceOnUse">
            <stop stop-color="white" stop-opacity="0.65"/>
            <stop offset="1" stop-color="white" stop-opacity="0.58"/>
        </linearGradient>
    </defs>
</svg>
