<svg width="68" height="68" viewBox="0 0 68 68" fill="none" xmlns="http://www.w3.org/2000/svg">
    <g filter="url(#filter0_i_314_1355)">
        <path d="M61.3127 22.3796C61.3719 22.0446 61.4028 21.7 61.4028 21.3482C61.4028 18.0579 58.701 15.3905 55.3683 15.3905C52.8906 15.3905 50.7617 16.8647 49.8324 18.9731C49.0795 18.3313 48.1025 17.9438 47.0349 17.9438C44.6543 17.9438 42.7245 19.8703 42.7245 22.2466C42.7245 22.379 42.7305 22.5099 42.7422 22.6392C41.5972 23.1929 40.8088 24.3547 40.8088 25.6983C40.8088 27.5786 42.3526 29.1028 44.2571 29.1028H60.5407C62.4452 29.1028 63.989 27.5786 63.989 25.6983C63.989 24.0802 62.8455 22.7257 61.3127 22.3796Z" fill="url(#paint0_linear_314_1355)"/>
    </g>
    <g filter="url(#filter1_i_314_1355)">
        <path d="M55.5005 33.1838C55.5005 42.8305 47.7534 50.6506 38.1969 50.6506C28.6404 50.6506 20.8933 42.8305 20.8933 33.1838C20.8933 23.5371 28.6404 15.717 38.1969 15.717C47.7534 15.717 55.5005 23.5371 55.5005 33.1838Z" fill="url(#paint1_linear_314_1355)"/>
    </g>
    <g filter="url(#filter2_i_314_1355)">
        <path d="M33.9762 43.4073C34.0632 42.9163 34.1086 42.4111 34.1086 41.8956C34.1086 37.0724 30.1389 33.1625 25.2421 33.1625C21.6018 33.1625 18.4738 35.3234 17.1083 38.4139C16.0021 37.4732 14.5667 36.9052 12.998 36.9052C9.50031 36.9052 6.66486 39.7291 6.66486 43.2125C6.66486 43.4064 6.67365 43.5984 6.69086 43.7879C5.00852 44.5995 3.85012 46.3026 3.85012 48.2721C3.85012 51.0282 6.11848 53.2625 8.91665 53.2625H32.8419C35.6401 53.2625 37.9084 51.0282 37.9084 48.2721C37.9084 45.9001 36.2283 43.9146 33.9762 43.4073Z" fill="url(#paint2_linear_314_1355)"/>
    </g>
    <defs>
        <filter id="filter0_i_314_1355" x="40.8088" y="15.3905" width="23.1802" height="23.7123" filterUnits="userSpaceOnUse" color-interpolation-filters="sRGB">
            <feFlood flood-opacity="0" result="BackgroundImageFix"/>
            <feBlend mode="normal" in="SourceGraphic" in2="BackgroundImageFix" result="shape"/>
            <feColorMatrix in="SourceAlpha" type="matrix" values="0 0 0 0 0 0 0 0 0 0 0 0 0 0 0 0 0 0 127 0" result="hardAlpha"/>
            <feOffset dy="11"/>
            <feGaussianBlur stdDeviation="5"/>
            <feComposite in2="hardAlpha" operator="arithmetic" k2="-1" k3="1"/>
            <feColorMatrix type="matrix" values="0 0 0 0 1 0 0 0 0 1 0 0 0 0 1 0 0 0 1 0"/>
            <feBlend mode="normal" in2="shape" result="effect1_innerShadow_314_1355"/>
        </filter>
        <filter id="filter1_i_314_1355" x="20.8933" y="15.717" width="34.6072" height="39.9337" filterUnits="userSpaceOnUse" color-interpolation-filters="sRGB">
            <feFlood flood-opacity="0" result="BackgroundImageFix"/>
            <feBlend mode="normal" in="SourceGraphic" in2="BackgroundImageFix" result="shape"/>
            <feColorMatrix in="SourceAlpha" type="matrix" values="0 0 0 0 0 0 0 0 0 0 0 0 0 0 0 0 0 0 127 0" result="hardAlpha"/>
            <feOffset dy="5"/>
            <feGaussianBlur stdDeviation="9"/>
            <feComposite in2="hardAlpha" operator="arithmetic" k2="-1" k3="1"/>
            <feColorMatrix type="matrix" values="0 0 0 0 1 0 0 0 0 1 0 0 0 0 1 0 0 0 0.81 0"/>
            <feBlend mode="normal" in2="shape" result="effect1_innerShadow_314_1355"/>
        </filter>
        <filter id="filter2_i_314_1355" x="3.8501" y="33.1625" width="34.0583" height="30.1" filterUnits="userSpaceOnUse" color-interpolation-filters="sRGB">
            <feFlood flood-opacity="0" result="BackgroundImageFix"/>
            <feBlend mode="normal" in="SourceGraphic" in2="BackgroundImageFix" result="shape"/>
            <feColorMatrix in="SourceAlpha" type="matrix" values="0 0 0 0 0 0 0 0 0 0 0 0 0 0 0 0 0 0 127 0" result="hardAlpha"/>
            <feOffset dy="11"/>
            <feGaussianBlur stdDeviation="5"/>
            <feComposite in2="hardAlpha" operator="arithmetic" k2="-1" k3="1"/>
            <feColorMatrix type="matrix" values="0 0 0 0 1 0 0 0 0 1 0 0 0 0 1 0 0 0 1 0"/>
            <feBlend mode="normal" in2="shape" result="effect1_innerShadow_314_1355"/>
        </filter>
        <linearGradient id="paint0_linear_314_1355" x1="42.2831" y1="27.8785" x2="65.6089" y2="10.3735" gradientUnits="userSpaceOnUse">
            <stop stop-color="white"/>
            <stop offset="1" stop-color="white" stop-opacity="0.58"/>
        </linearGradient>
        <linearGradient id="paint1_linear_314_1355" x1="35.5685" y1="42.6911" x2="50.0084" y2="17.6025" gradientUnits="userSpaceOnUse">
            <stop stop-color="#FF9900"/>
            <stop offset="1" stop-color="#FFEE94"/>
        </linearGradient>
        <linearGradient id="paint2_linear_314_1355" x1="6.01637" y1="51.4678" x2="40.2306" y2="25.7314" gradientUnits="userSpaceOnUse">
            <stop stop-color="#E3E3E1"/>
            <stop offset="1" stop-color="#FCFCFC"/>
        </linearGradient>
    </defs>
</svg>
