<svg width="68" height="68" viewBox="0 0 68 68" fill="none" xmlns="http://www.w3.org/2000/svg">
    <g filter="url(#filter0_i_314_1349)">
        <path d="M26.2442 23.4404C26.2649 23.3176 26.2757 23.1913 26.2757 23.0624C26.2757 21.8566 25.3321 20.8792 24.1681 20.8792C23.3028 20.8792 22.5593 21.4194 22.2347 22.192C21.9717 21.9568 21.6305 21.8148 21.2576 21.8148C20.4262 21.8148 19.7522 22.5208 19.7522 23.3917C19.7522 23.4401 19.7543 23.4881 19.7584 23.5355C19.3585 23.7384 19.0831 24.1642 19.0831 24.6566C19.0831 25.3456 19.6223 25.9042 20.2875 25.9042H25.9746C26.6398 25.9042 27.179 25.3456 27.179 24.6566C27.179 24.0636 26.7796 23.5672 26.2442 23.4404Z" fill="url(#paint0_linear_314_1349)"/>
    </g>
    <g filter="url(#filter1_i_314_1349)">
        <path d="M45.8162 37.0028C45.9104 36.4708 45.9594 35.9236 45.9594 35.365C45.9594 30.1399 41.6644 25.9042 36.3663 25.9042C32.4275 25.9042 29.0432 28.2451 27.5658 31.5932C26.3689 30.5741 24.8158 29.9588 23.1185 29.9588C19.3341 29.9588 16.2662 33.018 16.2662 36.7917C16.2662 37.0018 16.2758 37.2097 16.2944 37.415C14.4742 38.2943 13.2208 40.1393 13.2208 42.273C13.2208 45.2587 15.6751 47.6792 18.7026 47.6792H44.589C47.6165 47.6792 50.0708 45.2587 50.0708 42.273C50.0708 39.7033 48.2529 37.5524 45.8162 37.0028Z" fill="url(#paint1_linear_314_1349)"/>
    </g>
    <g filter="url(#filter2_i_314_1349)">
        <path d="M51.5172 23.1202C51.5172 23.4997 51.4844 23.8715 51.4217 24.233C53.0461 24.6064 54.2581 26.068 54.2581 27.814C54.2581 29.8428 52.6219 31.4875 50.6035 31.4875H45.1191C43.6176 28.1959 40.2632 25.9042 36.366 25.9042C33.8043 25.9042 31.4771 26.8944 29.7565 28.5079C29.7138 28.2832 29.6914 28.0513 29.6914 27.814C29.6914 26.3642 30.527 25.1106 31.7405 24.5131C31.7281 24.3736 31.7217 24.2324 31.7217 24.0896C31.7217 21.5254 33.767 19.4467 36.2899 19.4467C37.4214 19.4467 38.4568 19.8648 39.2547 20.5573C40.2397 18.2823 42.4959 16.6917 45.1217 16.6917C48.6538 16.6917 51.5172 19.5698 51.5172 23.1202Z" fill="url(#paint2_linear_314_1349)"/>
    </g>
    <g filter="url(#filter3_i_314_1349)">
        <path d="M23.0424 50.0439C21.6121 51.9202 19.6096 55.6727 23.0424 55.6727C26.4752 55.6727 24.4727 51.9202 23.0424 50.0439Z" fill="#507CB1"/>
    </g>
    <g filter="url(#filter4_i_314_1349)">
        <path d="M31.0837 52.801C29.6533 54.6773 27.6509 58.4298 31.0837 58.4298C34.5165 58.4298 32.514 54.6773 31.0837 52.801Z" fill="#507CB1"/>
    </g>
    <g filter="url(#filter5_i_314_1349)">
        <path d="M38.5505 50.0439C37.1201 51.9202 35.1176 55.6727 38.5505 55.6727C41.9833 55.6727 39.9808 51.9202 38.5505 50.0439Z" fill="#507CB1"/>
    </g>
    <defs>
        <filter id="filter0_i_314_1349" x="19.083" y="20.8792" width="8.09595" height="15.025" filterUnits="userSpaceOnUse" color-interpolation-filters="sRGB">
            <feFlood flood-opacity="0" result="BackgroundImageFix"/>
            <feBlend mode="normal" in="SourceGraphic" in2="BackgroundImageFix" result="shape"/>
            <feColorMatrix in="SourceAlpha" type="matrix" values="0 0 0 0 0 0 0 0 0 0 0 0 0 0 0 0 0 0 127 0" result="hardAlpha"/>
            <feOffset dy="11"/>
            <feGaussianBlur stdDeviation="5"/>
            <feComposite in2="hardAlpha" operator="arithmetic" k2="-1" k3="1"/>
            <feColorMatrix type="matrix" values="0 0 0 0 1 0 0 0 0 1 0 0 0 0 1 0 0 0 1 0"/>
            <feBlend mode="normal" in2="shape" result="effect1_innerShadow_314_1349"/>
        </filter>
        <filter id="filter1_i_314_1349" x="13.2207" y="25.9042" width="36.8501" height="31.775" filterUnits="userSpaceOnUse" color-interpolation-filters="sRGB">
            <feFlood flood-opacity="0" result="BackgroundImageFix"/>
            <feBlend mode="normal" in="SourceGraphic" in2="BackgroundImageFix" result="shape"/>
            <feColorMatrix in="SourceAlpha" type="matrix" values="0 0 0 0 0 0 0 0 0 0 0 0 0 0 0 0 0 0 127 0" result="hardAlpha"/>
            <feOffset dy="11"/>
            <feGaussianBlur stdDeviation="5"/>
            <feComposite in2="hardAlpha" operator="arithmetic" k2="-1" k3="1"/>
            <feColorMatrix type="matrix" values="0 0 0 0 1 0 0 0 0 1 0 0 0 0 1 0 0 0 1 0"/>
            <feBlend mode="normal" in2="shape" result="effect1_innerShadow_314_1349"/>
        </filter>
        <filter id="filter2_i_314_1349" x="29.6914" y="16.6917" width="24.5667" height="24.7958" filterUnits="userSpaceOnUse" color-interpolation-filters="sRGB">
            <feFlood flood-opacity="0" result="BackgroundImageFix"/>
            <feBlend mode="normal" in="SourceGraphic" in2="BackgroundImageFix" result="shape"/>
            <feColorMatrix in="SourceAlpha" type="matrix" values="0 0 0 0 0 0 0 0 0 0 0 0 0 0 0 0 0 0 127 0" result="hardAlpha"/>
            <feOffset dy="11"/>
            <feGaussianBlur stdDeviation="5"/>
            <feComposite in2="hardAlpha" operator="arithmetic" k2="-1" k3="1"/>
            <feColorMatrix type="matrix" values="0 0 0 0 1 0 0 0 0 1 0 0 0 0 1 0 0 0 1 0"/>
            <feBlend mode="normal" in2="shape" result="effect1_innerShadow_314_1349"/>
        </filter>
        <filter id="filter3_i_314_1349" x="21.147" y="50.0439" width="3.79077" height="5.62885" filterUnits="userSpaceOnUse" color-interpolation-filters="sRGB">
            <feFlood flood-opacity="0" result="BackgroundImageFix"/>
            <feBlend mode="normal" in="SourceGraphic" in2="BackgroundImageFix" result="shape"/>
            <feColorMatrix in="SourceAlpha" type="matrix" values="0 0 0 0 0 0 0 0 0 0 0 0 0 0 0 0 0 0 127 0" result="hardAlpha"/>
            <feOffset dy="9"/>
            <feGaussianBlur stdDeviation="1.5"/>
            <feComposite in2="hardAlpha" operator="arithmetic" k2="-1" k3="1"/>
            <feColorMatrix type="matrix" values="0 0 0 0 1 0 0 0 0 1 0 0 0 0 1 0 0 0 0.21 0"/>
            <feBlend mode="normal" in2="shape" result="effect1_innerShadow_314_1349"/>
        </filter>
        <filter id="filter4_i_314_1349" x="29.1882" y="52.801" width="3.79077" height="5.62885" filterUnits="userSpaceOnUse" color-interpolation-filters="sRGB">
            <feFlood flood-opacity="0" result="BackgroundImageFix"/>
            <feBlend mode="normal" in="SourceGraphic" in2="BackgroundImageFix" result="shape"/>
            <feColorMatrix in="SourceAlpha" type="matrix" values="0 0 0 0 0 0 0 0 0 0 0 0 0 0 0 0 0 0 127 0" result="hardAlpha"/>
            <feOffset dy="9"/>
            <feGaussianBlur stdDeviation="1.5"/>
            <feComposite in2="hardAlpha" operator="arithmetic" k2="-1" k3="1"/>
            <feColorMatrix type="matrix" values="0 0 0 0 1 0 0 0 0 1 0 0 0 0 1 0 0 0 0.21 0"/>
            <feBlend mode="normal" in2="shape" result="effect1_innerShadow_314_1349"/>
        </filter>
        <filter id="filter5_i_314_1349" x="36.655" y="50.0439" width="3.79077" height="5.62885" filterUnits="userSpaceOnUse" color-interpolation-filters="sRGB">
            <feFlood flood-opacity="0" result="BackgroundImageFix"/>
            <feBlend mode="normal" in="SourceGraphic" in2="BackgroundImageFix" result="shape"/>
            <feColorMatrix in="SourceAlpha" type="matrix" values="0 0 0 0 0 0 0 0 0 0 0 0 0 0 0 0 0 0 127 0" result="hardAlpha"/>
            <feOffset dy="9"/>
            <feGaussianBlur stdDeviation="1.5"/>
            <feComposite in2="hardAlpha" operator="arithmetic" k2="-1" k3="1"/>
            <feColorMatrix type="matrix" values="0 0 0 0 1 0 0 0 0 1 0 0 0 0 1 0 0 0 0.21 0"/>
            <feBlend mode="normal" in2="shape" result="effect1_innerShadow_314_1349"/>
        </filter>
        <linearGradient id="paint0_linear_314_1349" x1="19.5981" y1="25.4555" x2="28.023" y2="19.4298" gradientUnits="userSpaceOnUse">
            <stop stop-color="white" stop-opacity="0.65"/>
            <stop offset="1" stop-color="white" stop-opacity="0.58"/>
        </linearGradient>
        <linearGradient id="paint1_linear_314_1349" x1="15.5646" y1="45.735" x2="52.617" y2="17.8987" gradientUnits="userSpaceOnUse">
            <stop stop-color="white" stop-opacity="0.65"/>
            <stop offset="1" stop-color="white" stop-opacity="0.58"/>
        </linearGradient>
        <linearGradient id="paint2_linear_314_1349" x1="52.6955" y1="30.1664" x2="27.6562" y2="11.7102" gradientUnits="userSpaceOnUse">
            <stop stop-color="white" stop-opacity="0.65"/>
            <stop offset="1" stop-color="white" stop-opacity="0.58"/>
        </linearGradient>
    </defs>
</svg>
