<svg width="171" height="159" viewBox="0 0 171 159" fill="none" xmlns="http://www.w3.org/2000/svg">
    <g filter="url(#filter0_i_314_1343)">
        <path d="M74.8443 54.4404C74.865 54.3176 74.8758 54.1913 74.8758 54.0624C74.8758 52.8566 73.9322 51.8792 72.7682 51.8792C71.9029 51.8792 71.1593 52.4194 70.8348 53.192C70.5718 52.9568 70.2306 52.8148 69.8577 52.8148C69.0263 52.8148 68.3523 53.5208 68.3523 54.3917C68.3523 54.4401 68.3544 54.4881 68.3585 54.5355C67.9586 54.7384 67.6832 55.1642 67.6832 55.6566C67.6832 56.3456 68.2224 56.9042 68.8876 56.9042H74.5747C75.2399 56.9042 75.7791 56.3456 75.7791 55.6566C75.7791 55.0636 75.3797 54.5672 74.8443 54.4404Z" fill="url(#paint0_linear_314_1343)"/>
    </g>
    <g filter="url(#filter1_i_314_1343)">
        <path d="M94.4163 68.0028C94.5105 67.4708 94.5595 66.9236 94.5595 66.365C94.5595 61.1399 90.2645 56.9042 84.9664 56.9042C81.0276 56.9042 77.6433 59.2451 76.1659 62.5932C74.969 61.5741 73.4159 60.9588 71.7186 60.9588C67.9342 60.9588 64.8663 64.018 64.8663 67.7917C64.8663 68.0018 64.8759 68.2097 64.8945 68.415C63.0742 69.2943 61.8209 71.1393 61.8209 73.273C61.8209 76.2587 64.2752 78.6792 67.3027 78.6792H93.1891C96.2166 78.6792 98.6709 76.2587 98.6709 73.273C98.6709 70.7033 96.853 68.5524 94.4163 68.0028Z" fill="url(#paint1_linear_314_1343)"/>
    </g>
    <g filter="url(#filter2_i_314_1343)">
        <path d="M100.117 54.1202C100.117 54.4997 100.085 54.8715 100.022 55.233C101.646 55.6064 102.858 57.068 102.858 58.814C102.858 60.8428 101.222 62.4875 99.2036 62.4875H93.7192C92.2177 59.1959 88.8633 56.9042 84.9661 56.9042C82.4044 56.9042 80.0772 57.8944 78.3566 59.5079C78.3139 59.2832 78.2915 59.0513 78.2915 58.814C78.2915 57.3642 79.1271 56.1106 80.3406 55.5131C80.3281 55.3736 80.3218 55.2324 80.3218 55.0896C80.3218 52.5254 82.3671 50.4467 84.89 50.4467C86.0215 50.4467 87.0569 50.8648 87.8548 51.5573C88.8398 49.2823 91.096 47.6917 93.7218 47.6917C97.2539 47.6917 100.117 50.5698 100.117 54.1202Z" fill="url(#paint2_linear_314_1343)"/>
    </g>
    <g filter="url(#filter3_i_314_1343)">
        <path d="M74.1005 84.8209C72.6702 86.6971 70.6677 90.4497 74.1005 90.4497C77.5333 90.4497 75.5308 86.6971 74.1005 84.8209Z" fill="#507CB1"/>
    </g>
    <g filter="url(#filter4_i_314_1343)">
        <path d="M78.2328 80.3542C76.8025 82.2305 74.8 85.983 78.2328 85.983C81.6656 85.983 79.6632 82.2305 78.2328 80.3542Z" fill="#507CB1"/>
    </g>
    <g filter="url(#filter5_i_314_1343)">
        <path d="M69.5788 80.3542C68.1484 82.2305 66.146 85.983 69.5788 85.983C73.0116 85.983 71.0091 82.2305 69.5788 80.3542Z" fill="#507CB1"/>
    </g>
    <g filter="url(#filter6_f_314_1343)">
        <rect x="66.1858" y="77.2529" width="27.5699" height="4.02062" rx="2.01031" fill="#FFED8D"/>
    </g>
    <g filter="url(#filter7_i_314_1343)">
        <path d="M90.7505 78.6791H85.2928L82.9199 85.0114H87.1912L85.2137 92.9166L92.4116 82.5455H89.2477L90.7505 78.6791Z" fill="url(#paint3_linear_314_1343)"/>
    </g>
    <defs>
        <filter id="filter0_i_314_1343" x="67.6831" y="51.8792" width="8.09595" height="15.025" filterUnits="userSpaceOnUse" color-interpolation-filters="sRGB">
            <feFlood flood-opacity="0" result="BackgroundImageFix"/>
            <feBlend mode="normal" in="SourceGraphic" in2="BackgroundImageFix" result="shape"/>
            <feColorMatrix in="SourceAlpha" type="matrix" values="0 0 0 0 0 0 0 0 0 0 0 0 0 0 0 0 0 0 127 0" result="hardAlpha"/>
            <feOffset dy="11"/>
            <feGaussianBlur stdDeviation="5"/>
            <feComposite in2="hardAlpha" operator="arithmetic" k2="-1" k3="1"/>
            <feColorMatrix type="matrix" values="0 0 0 0 1 0 0 0 0 1 0 0 0 0 1 0 0 0 1 0"/>
            <feBlend mode="normal" in2="shape" result="effect1_innerShadow_314_1343"/>
        </filter>
        <filter id="filter1_i_314_1343" x="61.8208" y="56.9042" width="36.8501" height="31.775" filterUnits="userSpaceOnUse" color-interpolation-filters="sRGB">
            <feFlood flood-opacity="0" result="BackgroundImageFix"/>
            <feBlend mode="normal" in="SourceGraphic" in2="BackgroundImageFix" result="shape"/>
            <feColorMatrix in="SourceAlpha" type="matrix" values="0 0 0 0 0 0 0 0 0 0 0 0 0 0 0 0 0 0 127 0" result="hardAlpha"/>
            <feOffset dy="11"/>
            <feGaussianBlur stdDeviation="5"/>
            <feComposite in2="hardAlpha" operator="arithmetic" k2="-1" k3="1"/>
            <feColorMatrix type="matrix" values="0 0 0 0 1 0 0 0 0 1 0 0 0 0 1 0 0 0 1 0"/>
            <feBlend mode="normal" in2="shape" result="effect1_innerShadow_314_1343"/>
        </filter>
        <filter id="filter2_i_314_1343" x="78.2915" y="47.6917" width="24.5667" height="24.7958" filterUnits="userSpaceOnUse" color-interpolation-filters="sRGB">
            <feFlood flood-opacity="0" result="BackgroundImageFix"/>
            <feBlend mode="normal" in="SourceGraphic" in2="BackgroundImageFix" result="shape"/>
            <feColorMatrix in="SourceAlpha" type="matrix" values="0 0 0 0 0 0 0 0 0 0 0 0 0 0 0 0 0 0 127 0" result="hardAlpha"/>
            <feOffset dy="11"/>
            <feGaussianBlur stdDeviation="5"/>
            <feComposite in2="hardAlpha" operator="arithmetic" k2="-1" k3="1"/>
            <feColorMatrix type="matrix" values="0 0 0 0 1 0 0 0 0 1 0 0 0 0 1 0 0 0 1 0"/>
            <feBlend mode="normal" in2="shape" result="effect1_innerShadow_314_1343"/>
        </filter>
        <filter id="filter3_i_314_1343" x="72.2051" y="84.8209" width="3.79077" height="5.62885" filterUnits="userSpaceOnUse" color-interpolation-filters="sRGB">
            <feFlood flood-opacity="0" result="BackgroundImageFix"/>
            <feBlend mode="normal" in="SourceGraphic" in2="BackgroundImageFix" result="shape"/>
            <feColorMatrix in="SourceAlpha" type="matrix" values="0 0 0 0 0 0 0 0 0 0 0 0 0 0 0 0 0 0 127 0" result="hardAlpha"/>
            <feOffset dy="9"/>
            <feGaussianBlur stdDeviation="1.5"/>
            <feComposite in2="hardAlpha" operator="arithmetic" k2="-1" k3="1"/>
            <feColorMatrix type="matrix" values="0 0 0 0 1 0 0 0 0 1 0 0 0 0 1 0 0 0 0.21 0"/>
            <feBlend mode="normal" in2="shape" result="effect1_innerShadow_314_1343"/>
        </filter>
        <filter id="filter4_i_314_1343" x="76.3374" y="80.3542" width="3.79077" height="5.62885" filterUnits="userSpaceOnUse" color-interpolation-filters="sRGB">
            <feFlood flood-opacity="0" result="BackgroundImageFix"/>
            <feBlend mode="normal" in="SourceGraphic" in2="BackgroundImageFix" result="shape"/>
            <feColorMatrix in="SourceAlpha" type="matrix" values="0 0 0 0 0 0 0 0 0 0 0 0 0 0 0 0 0 0 127 0" result="hardAlpha"/>
            <feOffset dy="9"/>
            <feGaussianBlur stdDeviation="1.5"/>
            <feComposite in2="hardAlpha" operator="arithmetic" k2="-1" k3="1"/>
            <feColorMatrix type="matrix" values="0 0 0 0 1 0 0 0 0 1 0 0 0 0 1 0 0 0 0.21 0"/>
            <feBlend mode="normal" in2="shape" result="effect1_innerShadow_314_1343"/>
        </filter>
        <filter id="filter5_i_314_1343" x="67.6833" y="80.3542" width="3.79077" height="5.62885" filterUnits="userSpaceOnUse" color-interpolation-filters="sRGB">
            <feFlood flood-opacity="0" result="BackgroundImageFix"/>
            <feBlend mode="normal" in="SourceGraphic" in2="BackgroundImageFix" result="shape"/>
            <feColorMatrix in="SourceAlpha" type="matrix" values="0 0 0 0 0 0 0 0 0 0 0 0 0 0 0 0 0 0 127 0" result="hardAlpha"/>
            <feOffset dy="9"/>
            <feGaussianBlur stdDeviation="1.5"/>
            <feComposite in2="hardAlpha" operator="arithmetic" k2="-1" k3="1"/>
            <feColorMatrix type="matrix" values="0 0 0 0 1 0 0 0 0 1 0 0 0 0 1 0 0 0 0.21 0"/>
            <feBlend mode="normal" in2="shape" result="effect1_innerShadow_314_1343"/>
        </filter>
        <filter id="filter6_f_314_1343" x="-10.8142" y="0.25293" width="181.57" height="158.021" filterUnits="userSpaceOnUse" color-interpolation-filters="sRGB">
            <feFlood flood-opacity="0" result="BackgroundImageFix"/>
            <feBlend mode="normal" in="SourceGraphic" in2="BackgroundImageFix" result="shape"/>
            <feGaussianBlur stdDeviation="38.5" result="effect1_foregroundBlur_314_1343"/>
        </filter>
        <filter id="filter7_i_314_1343" x="80.9199" y="78.6791" width="11.4917" height="14.2375" filterUnits="userSpaceOnUse" color-interpolation-filters="sRGB">
            <feFlood flood-opacity="0" result="BackgroundImageFix"/>
            <feBlend mode="normal" in="SourceGraphic" in2="BackgroundImageFix" result="shape"/>
            <feColorMatrix in="SourceAlpha" type="matrix" values="0 0 0 0 0 0 0 0 0 0 0 0 0 0 0 0 0 0 127 0" result="hardAlpha"/>
            <feOffset dx="-2"/>
            <feGaussianBlur stdDeviation="4.5"/>
            <feComposite in2="hardAlpha" operator="arithmetic" k2="-1" k3="1"/>
            <feColorMatrix type="matrix" values="0 0 0 0 1 0 0 0 0 1 0 0 0 0 1 0 0 0 0.5 0"/>
            <feBlend mode="normal" in2="shape" result="effect1_innerShadow_314_1343"/>
        </filter>
        <linearGradient id="paint0_linear_314_1343" x1="68.1981" y1="56.4555" x2="76.6231" y2="50.4298" gradientUnits="userSpaceOnUse">
            <stop stop-color="white" stop-opacity="0.65"/>
            <stop offset="1" stop-color="white" stop-opacity="0.58"/>
        </linearGradient>
        <linearGradient id="paint1_linear_314_1343" x1="64.1647" y1="76.735" x2="101.217" y2="48.8987" gradientUnits="userSpaceOnUse">
            <stop stop-color="white" stop-opacity="0.65"/>
            <stop offset="1" stop-color="white" stop-opacity="0.58"/>
        </linearGradient>
        <linearGradient id="paint2_linear_314_1343" x1="101.296" y1="61.1664" x2="76.2563" y2="42.7102" gradientUnits="userSpaceOnUse">
            <stop stop-color="white" stop-opacity="0.65"/>
            <stop offset="1" stop-color="white" stop-opacity="0.58"/>
        </linearGradient>
        <linearGradient id="paint3_linear_314_1343" x1="86.4926" y1="91.5452" x2="95.6593" y2="78.7944" gradientUnits="userSpaceOnUse">
            <stop stop-color="#FF9900"/>
            <stop offset="1" stop-color="#FFEE94"/>
        </linearGradient>
    </defs>
</svg>
